<?xml version="1.0" encoding="UTF-8" standalone="no"?>
<svg
   xmlns:dc="http://purl.org/dc/elements/1.1/"
   xmlns:cc="http://creativecommons.org/ns#"
   xmlns:rdf="http://www.w3.org/1999/02/22-rdf-syntax-ns#"
   xmlns:svg="http://www.w3.org/2000/svg"
   xmlns="http://www.w3.org/2000/svg"
   xmlns:sodipodi="http://sodipodi.sourceforge.net/DTD/sodipodi-0.dtd"
   xmlns:inkscape="http://www.inkscape.org/namespaces/inkscape"
   version="1.1"
   id="svg875"
   xml:space="preserve"
   width="512"
   height="512"
   viewBox="0 0 512 512"
   sodipodi:docname="ytdl-music.svg"
   inkscape:version="1.0.1 (3bc2e813f5, 2020-09-07)"><metadata
     id="metadata881"><rdf:RDF><cc:Work
         rdf:about=""><dc:format>image/svg+xml</dc:format><dc:type
           rdf:resource="http://purl.org/dc/dcmitype/StillImage" /><dc:title></dc:title></cc:Work></rdf:RDF></metadata><defs
     id="defs879"><clipPath
       clipPathUnits="userSpaceOnUse"
       id="clipPath893"><path
         d="M 0,500 H 500 V 0 H 0 Z"
         id="path891" /></clipPath><clipPath
       clipPathUnits="userSpaceOnUse"
       id="clipPath905"><path
         d="M 63.5269,311.806 H 346.053 V 63.8486 H 63.5269 Z"
         id="path903" /></clipPath><clipPath
       clipPathUnits="userSpaceOnUse"
       id="clipPath909"><path
         d="m 247.235,94.92 c 6.26,5.866 12.068,12.231 18.125,18.304 5.763,5.776 11.648,11.34 17.226,17.271 5.702,6.061 12.26,11.322 17.685,17.639 5.264,6.131 11.595,11.534 17.285,17.295 6.031,6.105 12.217,12.002 18.147,18.217 2.23,2.338 5.333,4.451 7.156,7.113 0.985,1.44 1.065,3.01 0.915,4.699 -0.196,2.214 0.103,3.539 1.331,5.367 1.812,2.698 0.478,6.971 0.436,10.028 -0.063,4.559 0.128,9.116 0.24,13.673 0.445,18.206 0.025,36.453 0.01,54.664 -0.006,6.789 0.114,13.573 0.151,20.36 0.021,3.904 0.657,12.256 -5.252,12.256 h -111.573 -55.876 -12.79 c -3.468,0 -5.811,-2.842 -7.962,-5.172 -5.685,-6.163 -11.944,-11.965 -17.895,-17.881 -23.716,-23.576 -47.642,-46.922 -71.067,-70.785 13.337,-78.19 74.641,-140.019 152.567,-154.119 4.493,4.502 8.966,9.023 13.373,13.607 5.738,5.97 11.727,11.801 17.768,17.464"
         id="path907" /></clipPath><linearGradient
       x1="0"
       y1="0"
       x2="1"
       y2="0"
       gradientUnits="userSpaceOnUse"
       gradientTransform="matrix(-210.99562,-210.99562,-210.99562,210.99562,326.69092,327.76172)"
       spreadMethod="pad"
       id="linearGradient919"><stop
         style="stop-opacity:1;stop-color:#ffffff"
         offset="0"
         id="stop915" /><stop
         style="stop-opacity:0;stop-color:#ffffff"
         offset="1"
         id="stop917" /></linearGradient><mask
       maskUnits="userSpaceOnUse"
       x="0"
       y="0"
       width="1"
       height="1"
       id="mask921"><g
         id="g931"><g
           id="g929"><g
             id="g927"><g
               id="g925"><path
                 d="M -32768,32767 H 32767 V -32768 H -32768 Z"
                 style="fill:url(#linearGradient919);stroke:none"
                 id="path923" /></g></g></g></g></mask><linearGradient
       x1="0"
       y1="0"
       x2="1"
       y2="0"
       gradientUnits="userSpaceOnUse"
       gradientTransform="matrix(-210.99562,-210.99562,-210.99562,210.99562,326.69092,327.76172)"
       spreadMethod="pad"
       id="linearGradient937"><stop
         style="stop-opacity:1;stop-color:#000000"
         offset="0"
         id="stop933" /><stop
         style="stop-opacity:1;stop-color:#000000"
         offset="1"
         id="stop935" /></linearGradient></defs><sodipodi:namedview
     pagecolor="#ffffff"
     bordercolor="#666666"
     borderopacity="1"
     objecttolerance="10"
     gridtolerance="10"
     guidetolerance="10"
     inkscape:pageopacity="0"
     inkscape:pageshadow="2"
     inkscape:window-width="1334"
     inkscape:window-height="712"
     id="namedview877"
     showgrid="false"
     inkscape:zoom="0.74099998"
     inkscape:cx="333.33334"
     inkscape:cy="279.35224"
     inkscape:window-x="32"
     inkscape:window-y="32"
     inkscape:window-maximized="1"
     inkscape:current-layer="g883" /><g
     id="g883"
     inkscape:groupmode="layer"
     inkscape:label="cassette-2672633"
     transform="matrix(1.3333333,0,0,-1.3333333,0,666.66667)"><g
       id="g887"
       transform="matrix(0.98711859,0,0,0.98711859,-54.780136,61.219376)"><g
         id="g889"
         clip-path="url(#clipPath893)"><g
           id="g895"
           transform="translate(250.0005,439.1885)"><path
             d="m 0,0 c -104.486,0 -189.187,-84.701 -189.187,-189.187 0,-104.485 84.701,-189.188 189.187,-189.188 104.482,0 189.187,84.703 189.187,189.188 C 189.187,-84.701 104.482,0 0,0"
             style="fill:#ef8321;fill-opacity:1;fill-rule:evenodd;stroke:none"
             id="path897" /></g><g
           id="g899"><g
             id="g901" /><g
             id="g955"><g
               clip-path="url(#clipPath905)"
               opacity="0.5"
               id="g953"><g
                 id="g951"><g
                   clip-path="url(#clipPath909)"
                   id="g949"><g
                     id="g947"><g
                       id="g939" /><g
                       mask="url(#mask921)"
                       id="g945"><g
                         id="g943"><path
                           d="m 247.235,94.92 c 6.26,5.866 12.068,12.231 18.125,18.304 5.763,5.776 11.648,11.34 17.226,17.271 5.702,6.061 12.26,11.322 17.685,17.639 5.264,6.131 11.595,11.534 17.285,17.295 6.031,6.105 12.217,12.002 18.147,18.217 2.23,2.338 5.333,4.451 7.156,7.113 0.985,1.44 1.065,3.01 0.915,4.699 -0.196,2.214 0.103,3.539 1.331,5.367 1.812,2.698 0.478,6.971 0.436,10.028 -0.063,4.559 0.128,9.116 0.24,13.673 0.445,18.206 0.025,36.453 0.01,54.664 -0.006,6.789 0.114,13.573 0.151,20.36 0.021,3.904 0.657,12.256 -5.252,12.256 h -111.573 -55.876 -12.79 c -3.468,0 -5.811,-2.842 -7.962,-5.172 -5.685,-6.163 -11.944,-11.965 -17.895,-17.881 -23.716,-23.576 -47.642,-46.922 -71.067,-70.785 13.337,-78.19 74.641,-140.019 152.567,-154.119 4.493,4.502 8.966,9.023 13.373,13.607 5.738,5.97 11.727,11.801 17.768,17.464"
                           style="fill:url(#linearGradient937);stroke:none"
                           id="path941" /></g></g></g></g></g></g></g></g><g
           id="g957"
           transform="translate(295.7397,190.9131)"><path
             d="m 0,0 c -2.496,0 -4.521,2.024 -4.521,4.521 0,2.497 2.023,4.521 4.521,4.521 2.497,0 4.521,-2.024 4.521,-4.521 C 4.521,2.022 2.497,0 0,0 m -7.342,53.631 c -2.821,0.182 -5.469,1.463 -7.359,3.551 l 1.679,1.206 -1.737,2.412 -1.615,-1.163 c -0.234,0.476 -0.439,0.974 -0.605,1.493 -0.633,1.96 -0.677,3.968 -0.233,5.835 0.064,0.268 0.141,0.535 0.226,0.799 l 1.859,-0.838 1.221,2.71 -1.794,0.807 c 1.31,1.983 3.277,3.553 5.716,4.337 0.334,0.108 0.668,0.198 1.001,0.273 l 0.207,-2.04 2.956,0.296 -0.2,1.974 c 2.834,-0.166 5.497,-1.447 7.398,-3.539 l -1.677,-1.206 1.736,-2.412 1.616,1.163 c 0.24,-0.48 0.449,-0.985 0.618,-1.514 0.229,-0.712 0.382,-1.428 0.46,-2.144 0.17,-1.536 0,-3.06 -0.456,-4.482 L 1.803,61.993 0.58,59.285 2.39,58.47 c -1.31,-1.983 -3.277,-3.551 -5.716,-4.337 -0.35,-0.112 -0.698,-0.205 -1.051,-0.28 L -4.583,55.907 -7.54,55.609 Z M -15.303,6.396 c 0,-1.466 -1.178,-2.655 -2.646,-2.655 h -2.07 c -1.466,0 -2.655,1.189 -2.655,2.655 v 2.07 c 0,1.467 1.189,2.644 2.655,2.644 h 2.07 c 1.468,0 2.646,-1.177 2.646,-2.644 z m -53.492,0 c 0,-1.466 -1.179,-2.655 -2.646,-2.655 h -2.068 c -1.467,0 -2.645,1.189 -2.645,2.655 v 2.07 c 0,1.467 1.178,2.644 2.645,2.644 h 2.068 c 1.467,0 2.646,-1.177 2.646,-2.644 z m -8.479,51.749 -1.51,1.364 -1.993,-2.205 1.459,-1.317 c -1.86,-1.491 -4.217,-2.384 -6.785,-2.384 -0.356,0 -0.709,0.017 -1.058,0.052 l 0.434,2.018 -2.906,0.625 -0.419,-1.951 c -2.637,1.032 -4.772,3.065 -5.937,5.634 l 1.989,0.643 -0.911,2.827 -1.922,-0.619 c -0.079,0.529 -0.12,1.068 -0.12,1.619 0,2.363 0.758,4.546 2.039,6.327 l 1.531,-1.382 1.992,2.204 -1.475,1.333 c 1.854,1.481 4.206,2.368 6.763,2.368 0.36,0 0.711,-0.018 1.061,-0.051 l -0.433,-2.01 2.906,-0.623 0.418,1.941 c 1.076,-0.423 2.072,-1.009 2.952,-1.733 1.273,-1.053 2.298,-2.388 2.986,-3.91 l -1.95,-0.631 0.913,-2.827 1.879,0.606 c 0.078,-0.526 0.12,-1.064 0.12,-1.612 0,-2.06 -0.574,-3.986 -1.571,-5.628 -0.143,-0.231 -0.295,-0.458 -0.452,-0.678 M -91.458,0 c -2.497,0 -4.521,2.024 -4.521,4.521 0,2.497 2.024,4.521 4.521,4.521 2.497,0 4.521,-2.024 4.521,-4.521 C -86.937,2.022 -88.961,0 -91.458,0 M 44.951,120.893 h -181.368 c -2.864,0 -5.178,-2.303 -5.178,-5.167 V 10.386 l 1.91,-1.605 V 2.812 c 0,-2.864 2.315,-5.166 5.179,-5.166 h 21.126 c -0.134,-0.152 -0.268,-0.276 -0.405,-0.363 h 1.458 c 0,0 0.122,0.135 0.313,0.363 H 20.541 c 0.192,-0.228 0.314,-0.363 0.314,-0.363 h 1.457 c -0.135,0.087 -0.27,0.211 -0.407,0.363 h 21.136 c 2.863,0 5.166,2.302 5.166,5.166 v 5.969 l 1.909,1.605 v 105.34 c 0,2.864 -2.303,5.167 -5.165,5.167"
             style="fill:#ffffff;fill-opacity:1;fill-rule:nonzero;stroke:none"
             id="path959" /></g></g></g></g></svg>
